<?xml version="1.0" encoding="UTF-8"?><svg id="Vrstva_1" xmlns="http://www.w3.org/2000/svg" viewBox="0 0 473.36 473.36"><defs><style>.cls-1{fill:#fff;}.cls-2{fill:#002620;}</style></defs><rect class="cls-1" width="473.36" height="473.36" rx="47.34" ry="47.34"/><g><path class="cls-2" d="M72.19,68.81h28.68c26,0,46.63,8.15,61.9,24.45s22.9,39.03,22.9,68.19c0,30.82-9.98,55.02-29.92,72.63,11,7.84,19.12,16.64,24.35,26.41,7.56,13.9,11.35,30.61,11.35,50.14s-3.65,36.66-10.94,51.79c-5.5,11.28-14.68,21.22-27.55,29.82-12.86,8.6-28.3,12.9-46.32,12.9h-34.46V68.81Zm45.39,48.49v94.09c14.99-6.86,22.49-22.44,22.49-46.74,0-14.55-2.82-26.49-8.46-35.83-4.13-6.59-8.8-10.43-14.03-11.53Zm0,142.99v96.36c7.56-2.33,13.89-7.45,18.98-15.34,5.09-7.89,7.63-18.22,7.63-30.98,0-11.12-2.37-21.14-7.12-30.06-4.75-8.92-11.25-15.58-19.5-19.97Z"/><rect class="cls-2" x="213.01" y="68.22" width="44.55" height="275.66"/><rect class="cls-2" x="213.01" y="357.81" width="44.55" height="48.73"/><rect class="cls-2" x="380.08" y="359.2" width="44.55" height="48.73"/><rect class="cls-2" x="297.89" y="129.36" width="44.55" height="275.66" transform="translate(662.41 505.43) rotate(175)"/><rect class="cls-2" x="282.52" y="67.38" width="44.55" height="48.73" transform="translate(616.44 156.55) rotate(175)"/></g></svg>