<?xml version="1.0" encoding="utf-8"?>
<!-- Generator: Adobe Illustrator 27.0.0, SVG Export Plug-In . SVG Version: 6.00 Build 0)  -->
<svg version="1.1" id="Vrstva_1" xmlns="http://www.w3.org/2000/svg" xmlns:xlink="http://www.w3.org/1999/xlink" x="0px" y="0px"
	 viewBox="0 0 595.28 841.89" style="enable-background:new 0 0 595.28 841.89;" xml:space="preserve">
<style type="text/css">
	.st0{fill:#002620;}
	.st1{fill:#FFFFFF;}
</style>
<path class="st0" d="M487.49,539.11H108.8c-26.14,0-47.34-21.19-47.34-47.34V113.08c0-26.14,21.19-47.34,47.34-47.34h378.69
	c26.14,0,47.34,21.19,47.34,47.34v378.69C534.83,517.91,513.64,539.11,487.49,539.11z"/>
<g>
	<g>
		<path class="st1" d="M133.66,134.56h28.68c26,0,46.63,8.15,61.9,24.45s22.9,39.03,22.9,68.19c0,30.82-9.98,55.02-29.92,72.63
			c11,7.84,19.12,16.64,24.35,26.41c7.56,13.9,11.35,30.61,11.35,50.14c0,19.4-3.65,36.66-10.94,51.79
			c-5.5,11.28-14.68,21.22-27.55,29.82c-12.86,8.6-28.3,12.9-46.32,12.9h-34.46V134.56z M179.05,183.05v94.09
			c14.99-6.86,22.49-22.44,22.49-46.74c0-14.55-2.82-26.49-8.46-35.83C188.96,187.99,184.28,184.15,179.05,183.05z M179.05,326.04
			v96.36c7.56-2.33,13.89-7.45,18.98-15.34c5.09-7.89,7.63-18.22,7.63-30.98c0-11.12-2.37-21.14-7.12-30.06
			C193.81,337.09,187.31,330.43,179.05,326.04z"/>
	</g>
	<rect x="274.48" y="133.96" class="st1" width="44.55" height="275.66"/>
	<rect x="274.48" y="423.55" class="st1" width="44.55" height="48.73"/>
	<rect x="441.55" y="424.94" class="st1" width="44.55" height="48.73"/>
	
		<rect x="359.36" y="195.1" transform="matrix(-0.9962 0.0872 -0.0872 -0.9962 790.8508 631.3112)" class="st1" width="44.55" height="275.66"/>
	
		<rect x="343.99" y="133.12" transform="matrix(-0.9962 0.0872 -0.0872 -0.9962 744.8784 282.4261)" class="st1" width="44.55" height="48.73"/>
</g>
</svg>
