<?xml version="1.0" encoding="utf-8"?>
<!-- Generator: Adobe Illustrator 27.0.0, SVG Export Plug-In . SVG Version: 6.00 Build 0)  -->
<svg version="1.1" id="Vrstva_1" xmlns="http://www.w3.org/2000/svg" xmlns:xlink="http://www.w3.org/1999/xlink" x="0px" y="0px"
	 viewBox="0 0 1366 768" style="enable-background:new 0 0 1366 768;" xml:space="preserve">
<style type="text/css">
	.st0{opacity:0.68;fill:#B6174B;}
	.st1{opacity:0.77;fill:#00695D;}
	.st2{opacity:0.85;fill:none;stroke:#00695D;stroke-width:2;stroke-miterlimit:10;}
	.st3{opacity:0.28;fill:none;stroke:#00695D;stroke-width:3;stroke-miterlimit:10;}
	.st4{fill:none;stroke:#00695D;stroke-width:3;stroke-miterlimit:10;}
	.st5{opacity:0.32;fill:none;stroke:#00695D;stroke-width:3;stroke-miterlimit:10;}
	.st6{opacity:0.26;}
	.st7{fill:#00695D;}
	.st8{fill:#09443D;}
	.st9{fill:#B6174B;}
</style>
<circle class="st0" cx="557" cy="270" r="157"/>
<circle class="st1" cx="348" cy="496" r="195"/>
<line class="st2" x1="854" y1="768" x2="854" y2="547"/>
<line class="st3" x1="830" y1="769" x2="830" y2="344.5"/>
<line class="st2" x1="309" y1="2" x2="309" y2="223"/>
<line class="st4" x1="333" y1="2" x2="333" y2="385"/>
<line class="st2" x1="540" y1="1.62" x2="540" y2="138.95"/>
<line class="st5" x1="564" y1="1" x2="564" y2="239"/>
<g class="st6">
	<path class="st7" d="M864.82,91.08l-30.05,113.31h-29.22l-15.85-62.5l-14.97,62.5h-30.46l-30.1-113.31h32.73l15.85,65.21
		l15.46-65.21h27.31l16.82,65.34l15.87-65.34H864.82z"/>
	<path class="st7" d="M922.1,206.13c-15.94,0-28.93-5.28-38.97-15.85c-10.04-10.57-15.07-24.71-15.07-42.42
		c0-16.93,4.8-30.92,14.4-41.96c9.6-11.04,22.92-16.56,39.97-16.56c15.77,0,28.62,5.2,38.56,15.61c9.93,10.4,14.9,24.29,14.9,41.67
		c0,17.99-5.01,32.4-15.02,43.25C950.84,200.71,937.92,206.13,922.1,206.13z M921.93,180.4c5.87,0,10.08-2.56,12.66-7.68
		c2.57-5.12,3.86-14.48,3.86-28.1c0-19.7-5.29-29.55-15.85-29.55c-11.4,0-17.1,11.23-17.1,33.7
		C905.5,169.86,910.97,180.4,921.93,180.4z"/>
	<path class="st7" d="M1091.43,204.39h-38.56l-16.55-43.33h-10.97v43.33h-34.78V91.08h59.18c13.06,0,23.2,3.06,30.42,9.17
		c7.22,6.12,10.83,14.18,10.83,24.2c0,6.53-1.33,12.3-3.98,17.31c-2.66,5.01-8.02,9.42-16.1,13.24L1091.43,204.39z M1025.36,136.82
		h14.86c4.37,0,7.89-0.91,10.54-2.74s3.98-4.51,3.98-8.05c0-7.25-4.46-10.87-13.36-10.87h-16.02V136.82z"/>
	<path class="st7" d="M1187.31,176.58v27.81h-79.44V91.08h34.78v85.5H1187.31z"/>
	<path class="st7" d="M1199.43,204.39V91.08h43.83c19.04,0,33.29,5.64,42.75,16.93s14.19,24.35,14.19,39.18
		c0,16.93-5.08,30.7-15.23,41.3c-10.16,10.6-23.34,15.9-39.55,15.9H1199.43z M1234.21,178.32h9.05c5.75,0,10.61-2.79,14.57-8.38
		c3.96-5.59,5.94-13.2,5.94-22.83c0-8.25-1.76-15.36-5.27-21.33c-3.51-5.98-8.59-8.96-15.23-8.96h-9.05V178.32z"/>
</g>
<g>
	<path class="st8" d="M870.01,182.72H819V112.2h51.01v13.64h-32.92v12.17h30.55v13.64h-30.55v17.43h32.92V182.72z"/>
	<path class="st8" d="M939.92,182.72h-19.89l-11.36-15.93l-11.67,15.93h-19.49l20.98-26.63l-20.65-26.56h19.89l11.17,15.61
		l11.24-15.61h19.55l-20.7,26.2L939.92,182.72z"/>
	<path class="st8" d="M1004.71,155.39c0,4.39-0.67,8.38-2.01,11.98s-3.1,6.57-5.27,8.9c-2.27,2.46-4.84,4.33-7.71,5.59
		c-2.87,1.26-5.94,1.89-9.22,1.89c-3.03,0-5.6-0.32-7.71-0.97c-2.11-0.65-4.27-1.56-6.48-2.72v22.17h-17.1v-72.7h17.1v5.54
		c2.62-2.08,5.29-3.77,8.02-5.07c2.73-1.29,5.87-1.94,9.44-1.94c6.62,0,11.77,2.43,15.45,7.29
		C1002.87,140.22,1004.71,146.9,1004.71,155.39z M987.14,155.75c0-5.17-0.88-8.92-2.65-11.25c-1.76-2.33-4.55-3.5-8.36-3.5
		c-1.61,0-3.26,0.25-4.96,0.73c-1.7,0.49-3.32,1.19-4.87,2.1v26.72c1.13,0.44,2.35,0.73,3.64,0.85c1.29,0.13,2.57,0.19,3.83,0.19
		c4.5,0,7.86-1.32,10.07-3.95S987.14,161.04,987.14,155.75z"/>
	<path class="st8" d="M1034.12,182.72h-17.1v-73.7h17.1V182.72z"/>
	<path class="st8" d="M1104.55,156.15c0,8.75-2.55,15.64-7.65,20.67c-5.1,5.04-12.26,7.55-21.48,7.55c-9.22,0-16.38-2.52-21.48-7.55
		c-5.1-5.04-7.65-11.93-7.65-20.67c0-8.81,2.57-15.72,7.7-20.75s12.27-7.53,21.43-7.53c9.28,0,16.46,2.53,21.53,7.58
		C1102.02,140.5,1104.55,147.4,1104.55,156.15z M1083.57,169.08c1.1-1.36,1.93-2.99,2.49-4.9c0.55-1.91,0.83-4.55,0.83-7.93
		c0-3.13-0.28-5.75-0.85-7.86c-0.57-2.12-1.36-3.8-2.37-5.07c-1.01-1.29-2.23-2.21-3.65-2.75c-1.42-0.54-2.95-0.81-4.59-0.81
		c-1.64,0-3.1,0.22-4.38,0.66c-1.28,0.44-2.5,1.33-3.67,2.65c-1.04,1.23-1.87,2.92-2.49,5.07c-0.62,2.15-0.92,4.85-0.92,8.1
		c0,2.91,0.27,5.42,0.81,7.55c0.54,2.13,1.33,3.84,2.37,5.14c1.01,1.23,2.22,2.13,3.62,2.7s3.01,0.85,4.81,0.85
		c1.55,0,3.02-0.26,4.43-0.78C1081.4,171.19,1082.59,170.31,1083.57,169.08z"/>
	<path class="st8" d="M1155.33,145.78h-1.51c-0.73-0.25-1.89-0.44-3.5-0.57c-1.61-0.13-2.95-0.19-4.02-0.19
		c-2.43,0-4.57,0.16-6.43,0.47c-1.86,0.32-3.86,0.85-6,1.61v35.62h-17.1v-53.19h17.1v7.81c3.75-3.22,7.01-5.36,9.78-6.42
		c2.77-1.06,5.33-1.59,7.66-1.59c0.6,0,1.28,0.02,2.03,0.05c0.76,0.03,1.42,0.08,1.98,0.14V145.78z"/>
	<path class="st8" d="M1217.37,159.27h-39.03c0.25,4.17,1.84,7.36,4.76,9.57c2.92,2.21,7.22,3.32,12.91,3.32
		c3.6,0,7.09-0.65,10.47-1.94c3.38-1.29,6.05-2.68,8-4.17h1.89v13.69c-3.85,1.55-7.48,2.67-10.89,3.36s-7.18,1.04-11.32,1.04
		c-10.67,0-18.85-2.4-24.53-7.2c-5.68-4.8-8.53-11.64-8.53-20.51c0-8.78,2.69-15.73,8.08-20.86c5.38-5.13,12.76-7.7,22.14-7.7
		c8.65,0,15.16,2.19,19.51,6.56c4.36,4.37,6.54,10.67,6.54,18.87V159.27z M1200.42,149.28c-0.09-3.57-0.98-6.25-2.65-8.05
		c-1.67-1.8-4.28-2.7-7.82-2.7c-3.28,0-5.98,0.85-8.1,2.56c-2.12,1.71-3.3,4.44-3.55,8.19H1200.42z"/>
</g>
<g>
	<path class="st8" d="M464.92,497.72H442.7l-19.19-25.86h-8.43v25.86H397V427.2h30.5c4.17,0,7.75,0.24,10.75,0.71
		c3,0.47,5.81,1.5,8.43,3.08c2.65,1.58,4.76,3.62,6.32,6.13c1.56,2.51,2.34,5.66,2.34,9.45c0,5.21-1.21,9.46-3.62,12.74
		c-2.42,3.28-5.87,6.01-10.35,8.19L464.92,497.72z M436.55,448.79c0-1.77-0.36-3.28-1.09-4.55c-0.73-1.26-1.97-2.26-3.74-2.98
		c-1.23-0.5-2.67-0.81-4.31-0.92c-1.64-0.11-3.55-0.17-5.73-0.17h-6.58v18.99h5.59c2.9,0,5.34-0.14,7.29-0.43
		c1.96-0.28,3.6-0.93,4.93-1.94c1.26-0.98,2.19-2.06,2.77-3.24S436.55,450.78,436.55,448.79z"/>
	<path class="st8" d="M524.31,474.27h-39.03c0.25,4.17,1.84,7.36,4.76,9.57c2.92,2.21,7.22,3.32,12.91,3.32
		c3.6,0,7.09-0.65,10.47-1.94c3.38-1.29,6.05-2.68,8-4.17h1.89v13.69c-3.85,1.55-7.48,2.67-10.89,3.36
		c-3.41,0.7-7.18,1.04-11.32,1.04c-10.67,0-18.85-2.4-24.53-7.2c-5.68-4.8-8.53-11.64-8.53-20.51c0-8.78,2.69-15.73,8.08-20.86
		c5.38-5.13,12.76-7.7,22.14-7.7c8.65,0,15.16,2.19,19.51,6.56c4.36,4.38,6.54,10.67,6.54,18.88V474.27z M507.36,464.28
		c-0.09-3.57-0.98-6.25-2.65-8.05c-1.67-1.8-4.28-2.7-7.82-2.7c-3.28,0-5.98,0.85-8.1,2.56c-2.12,1.71-3.3,4.44-3.55,8.19H507.36z"
		/>
	<path class="st8" d="M568.55,492.08c-0.92,0.69-2.05,1.53-3.41,2.51c-1.36,0.98-2.64,1.75-3.84,2.32
		c-1.67,0.76-3.41,1.32-5.21,1.68c-1.8,0.36-3.77,0.54-5.92,0.54c-5.05,0-9.28-1.56-12.69-4.69s-5.12-7.12-5.12-11.98
		c0-3.88,0.87-7.06,2.6-9.52s4.2-4.41,7.39-5.83c3.16-1.42,7.07-2.43,11.75-3.03s9.52-1.04,14.54-1.33v-0.29
		c0-2.94-1.2-4.96-3.6-6.09c-2.4-1.12-5.94-1.68-10.61-1.68c-2.81,0-5.81,0.5-9,1.49c-3.19,0.99-5.48,1.76-6.87,2.3H537v-12.83
		c1.8-0.47,4.73-1.03,8.79-1.68c4.06-0.65,8.12-0.97,12.2-0.97c9.69,0,16.7,1.49,21,4.48c4.31,2.98,6.47,7.67,6.47,14.04v36.19
		h-16.91V492.08z M568.55,483.81v-11.05c-2.31,0.19-4.8,0.45-7.48,0.78c-2.68,0.33-4.72,0.72-6.11,1.16
		c-1.71,0.54-3.01,1.31-3.91,2.34c-0.9,1.02-1.35,2.37-1.35,4.04c0,1.1,0.09,2,0.28,2.69c0.19,0.69,0.66,1.35,1.42,1.98
		c0.73,0.63,1.59,1.09,2.61,1.39c1.01,0.3,2.59,0.45,4.74,0.45c1.71,0,3.43-0.35,5.19-1.04
		C565.68,485.85,567.22,484.94,568.55,483.81z"/>
	<path class="st8" d="M652.86,497.72h-17.1v-5.54c-2.93,2.4-5.68,4.17-8.23,5.3s-5.5,1.71-8.85,1.71c-6.46,0-11.64-2.49-15.52-7.48
		c-3.88-4.99-5.82-11.71-5.82-20.18c0-4.52,0.65-8.52,1.96-12.01c1.31-3.49,3.1-6.48,5.37-8.98c2.14-2.37,4.75-4.21,7.8-5.52
		c3.06-1.31,6.12-1.96,9.18-1.96c3.19,0,5.79,0.34,7.83,1.02c2.03,0.68,4.12,1.54,6.27,2.58v-22.64h17.1V497.72z M635.76,483.08
		v-26.14c-1.2-0.51-2.46-0.87-3.78-1.09c-1.32-0.22-2.54-0.33-3.64-0.33c-4.47,0-7.83,1.4-10.07,4.2s-3.36,6.68-3.36,11.65
		c0,5.22,0.9,9,2.69,11.36c1.8,2.36,4.68,3.53,8.65,3.53c1.54,0,3.18-0.29,4.92-0.88C632.91,484.79,634.43,484.03,635.76,483.08z"/>
</g>
<g>
	<path class="st9" d="M868.64,256.1c0,3.58-2.48,5.14-4.82,5.14c-2.62,0-4.64-1.92-4.64-4.98c0-3.24,2.12-5.14,4.8-5.14
		C866.76,251.12,868.64,253.14,868.64,256.1z M860.96,256.2c0,2.12,1.22,3.72,2.94,3.72c1.68,0,2.94-1.58,2.94-3.76
		c0-1.64-0.82-3.72-2.9-3.72S860.96,254.36,860.96,256.2z"/>
	<path class="st9" d="M871.1,253.96c0-1-0.02-1.82-0.08-2.62h1.56l0.1,1.6h0.04c0.48-0.92,1.6-1.82,3.2-1.82
		c1.34,0,3.42,0.8,3.42,4.12v5.78h-1.76v-5.58c0-1.56-0.58-2.86-2.24-2.86c-1.16,0-2.06,0.82-2.36,1.8
		c-0.08,0.22-0.12,0.52-0.12,0.82v5.82h-1.76V253.96z"/>
	<path class="st9" d="M882.44,246.82h1.76v14.2h-1.76V246.82z"/>
	<path class="st9" d="M889.36,248.62c0.02,0.6-0.42,1.08-1.12,1.08c-0.62,0-1.06-0.48-1.06-1.08c0-0.62,0.46-1.1,1.1-1.1
		C888.94,247.52,889.36,248,889.36,248.62z M887.4,261.02v-9.68h1.76v9.68H887.4z"/>
	<path class="st9" d="M892.32,253.96c0-1-0.02-1.82-0.08-2.62h1.56l0.1,1.6h0.04c0.48-0.92,1.6-1.82,3.2-1.82
		c1.34,0,3.42,0.8,3.42,4.12v5.78h-1.76v-5.58c0-1.56-0.58-2.86-2.24-2.86c-1.16,0-2.06,0.82-2.36,1.8
		c-0.08,0.22-0.12,0.52-0.12,0.82v5.82h-1.76V253.96z"/>
	<path class="st9" d="M904.64,256.5c0.04,2.38,1.56,3.36,3.32,3.36c1.26,0,2.02-0.22,2.68-0.5l0.3,1.26
		c-0.62,0.28-1.68,0.6-3.22,0.6c-2.98,0-4.76-1.96-4.76-4.88c0-2.92,1.72-5.22,4.54-5.22c3.16,0,4,2.78,4,4.56
		c0,0.36-0.04,0.64-0.06,0.82H904.64z M909.8,255.24c0.02-1.12-0.46-2.86-2.44-2.86c-1.78,0-2.56,1.64-2.7,2.86H909.8z"/>
	<path class="st9" d="M925.3,260.66c-0.46,0.24-1.48,0.56-2.78,0.56c-2.92,0-4.82-1.98-4.82-4.94c0-2.98,2.04-5.14,5.2-5.14
		c1.04,0,1.96,0.26,2.44,0.5l-0.4,1.36c-0.42-0.24-1.08-0.46-2.04-0.46c-2.22,0-3.42,1.64-3.42,3.66c0,2.24,1.44,3.62,3.36,3.62
		c1,0,1.66-0.26,2.16-0.48L925.3,260.66z"/>
	<path class="st9" d="M936.24,256.1c0,3.58-2.48,5.14-4.82,5.14c-2.62,0-4.64-1.92-4.64-4.98c0-3.24,2.12-5.14,4.8-5.14
		C934.36,251.12,936.24,253.14,936.24,256.1z M928.56,256.2c0,2.12,1.22,3.72,2.94,3.72c1.68,0,2.94-1.58,2.94-3.76
		c0-1.64-0.82-3.72-2.9-3.72C929.46,252.44,928.56,254.36,928.56,256.2z"/>
	<path class="st9" d="M938.7,253.96c0-1-0.02-1.82-0.08-2.62h1.54l0.08,1.56h0.06c0.54-0.92,1.44-1.78,3.04-1.78
		c1.32,0,2.32,0.8,2.74,1.94h0.04c0.3-0.54,0.68-0.96,1.08-1.26c0.58-0.44,1.22-0.68,2.14-0.68c1.28,0,3.18,0.84,3.18,4.2v5.7h-1.72
		v-5.48c0-1.86-0.68-2.98-2.1-2.98c-1,0-1.78,0.74-2.08,1.6c-0.08,0.24-0.14,0.56-0.14,0.88v5.98h-1.72v-5.8
		c0-1.54-0.68-2.66-2.02-2.66c-1.1,0-1.9,0.88-2.18,1.76c-0.1,0.26-0.14,0.56-0.14,0.86v5.84h-1.72V253.96z"/>
	<path class="st9" d="M955.62,253.96c0-1-0.02-1.82-0.08-2.62h1.54l0.08,1.56h0.06c0.54-0.92,1.44-1.78,3.04-1.78
		c1.32,0,2.32,0.8,2.74,1.94h0.04c0.3-0.54,0.68-0.96,1.08-1.26c0.58-0.44,1.22-0.68,2.14-0.68c1.28,0,3.18,0.84,3.18,4.2v5.7h-1.72
		v-5.48c0-1.86-0.68-2.98-2.1-2.98c-1,0-1.78,0.74-2.08,1.6c-0.08,0.24-0.14,0.56-0.14,0.88v5.98h-1.72v-5.8
		c0-1.54-0.68-2.66-2.02-2.66c-1.1,0-1.9,0.88-2.18,1.76c-0.1,0.26-0.14,0.56-0.14,0.86v5.84h-1.72V253.96z"/>
	<path class="st9" d="M980.64,258.38c0,1,0.02,1.88,0.08,2.64h-1.56l-0.1-1.58h-0.04c-0.46,0.78-1.48,1.8-3.2,1.8
		c-1.52,0-3.34-0.84-3.34-4.24v-5.66h1.76v5.36c0,1.84,0.56,3.08,2.16,3.08c1.18,0,2-0.82,2.32-1.6c0.1-0.26,0.16-0.58,0.16-0.9
		v-5.94h1.76V258.38z"/>
	<path class="st9" d="M983.8,253.96c0-1-0.02-1.82-0.08-2.62h1.56l0.1,1.6h0.04c0.48-0.92,1.6-1.82,3.2-1.82
		c1.34,0,3.42,0.8,3.42,4.12v5.78h-1.76v-5.58c0-1.56-0.58-2.86-2.24-2.86c-1.16,0-2.06,0.82-2.36,1.8
		c-0.08,0.22-0.12,0.52-0.12,0.82v5.82h-1.76V253.96z"/>
	<path class="st9" d="M997.1,248.62c0.02,0.6-0.42,1.08-1.12,1.08c-0.62,0-1.06-0.48-1.06-1.08c0-0.62,0.46-1.1,1.1-1.1
		C996.68,247.52,997.1,248,997.1,248.62z M995.14,261.02v-9.68h1.76v9.68H995.14z"/>
	<path class="st9" d="M1002.18,248.56v2.78h2.52v1.34h-2.52v5.22c0,1.2,0.34,1.88,1.32,1.88c0.46,0,0.8-0.06,1.02-0.12l0.08,1.32
		c-0.34,0.14-0.88,0.24-1.56,0.24c-0.82,0-1.48-0.26-1.9-0.74c-0.5-0.52-0.68-1.38-0.68-2.52v-5.28h-1.5v-1.34h1.5v-2.32
		L1002.18,248.56z"/>
	<path class="st9" d="M1007.74,251.34l2.12,5.72c0.22,0.64,0.46,1.4,0.62,1.98h0.04c0.18-0.58,0.38-1.32,0.62-2.02l1.92-5.68h1.86
		l-2.64,6.9c-1.26,3.32-2.12,5.02-3.32,6.06c-0.86,0.76-1.72,1.06-2.16,1.14l-0.44-1.48c0.44-0.14,1.02-0.42,1.54-0.86
		c0.48-0.38,1.08-1.06,1.48-1.96c0.08-0.18,0.14-0.32,0.14-0.42c0-0.1-0.04-0.24-0.12-0.46l-3.58-8.92H1007.74z"/>
	<path class="st9" d="M1021.42,261.02v-8.34h-1.36v-1.34h1.36v-0.46c0-1.36,0.3-2.6,1.12-3.38c0.66-0.64,1.54-0.9,2.36-0.9
		c0.62,0,1.16,0.14,1.5,0.28l-0.24,1.36c-0.26-0.12-0.62-0.22-1.12-0.22c-1.5,0-1.88,1.32-1.88,2.8v0.52h2.34v1.34h-2.34v8.34
		H1021.42z"/>
	<path class="st9" d="M1035.82,256.1c0,3.58-2.48,5.14-4.82,5.14c-2.62,0-4.64-1.92-4.64-4.98c0-3.24,2.12-5.14,4.8-5.14
		C1033.94,251.12,1035.82,253.14,1035.82,256.1z M1028.14,256.2c0,2.12,1.22,3.72,2.94,3.72c1.68,0,2.94-1.58,2.94-3.76
		c0-1.64-0.82-3.72-2.9-3.72S1028.14,254.36,1028.14,256.2z"/>
	<path class="st9" d="M1038.28,254.36c0-1.14-0.02-2.12-0.08-3.02h1.54l0.06,1.9h0.08c0.44-1.3,1.5-2.12,2.68-2.12
		c0.2,0,0.34,0.02,0.5,0.06v1.66c-0.18-0.04-0.36-0.06-0.6-0.06c-1.24,0-2.12,0.94-2.36,2.26c-0.04,0.24-0.08,0.52-0.08,0.82v5.16
		h-1.74V254.36z"/>
	<path class="st9" d="M1049.46,261.02c0.04-0.66,0.08-1.64,0.08-2.5v-11.7h1.74v6.08h0.04c0.62-1.08,1.74-1.78,3.3-1.78
		c2.4,0,4.1,2,4.08,4.94c0,3.46-2.18,5.18-4.34,5.18c-1.4,0-2.52-0.54-3.24-1.82h-0.06l-0.08,1.6H1049.46z M1051.28,257.14
		c0,0.22,0.04,0.44,0.08,0.64c0.34,1.22,1.36,2.06,2.64,2.06c1.84,0,2.94-1.5,2.94-3.72c0-1.94-1-3.6-2.88-3.6
		c-1.2,0-2.32,0.82-2.68,2.16c-0.04,0.2-0.1,0.44-0.1,0.72V257.14z"/>
	<path class="st9" d="M1069.92,256.1c0,3.58-2.48,5.14-4.82,5.14c-2.62,0-4.64-1.92-4.64-4.98c0-3.24,2.12-5.14,4.8-5.14
		C1068.04,251.12,1069.92,253.14,1069.92,256.1z M1062.24,256.2c0,2.12,1.22,3.72,2.94,3.72c1.68,0,2.94-1.58,2.94-3.76
		c0-1.64-0.82-3.72-2.9-3.72S1062.24,254.36,1062.24,256.2z"/>
	<path class="st9" d="M1081.14,256.1c0,3.58-2.48,5.14-4.82,5.14c-2.62,0-4.64-1.92-4.64-4.98c0-3.24,2.12-5.14,4.8-5.14
		C1079.26,251.12,1081.14,253.14,1081.14,256.1z M1073.46,256.2c0,2.12,1.22,3.72,2.94,3.72c1.68,0,2.94-1.58,2.94-3.76
		c0-1.64-0.82-3.72-2.9-3.72C1074.36,252.44,1073.46,254.36,1073.46,256.2z"/>
	<path class="st9" d="M1085.34,255.78h0.04c0.24-0.34,0.58-0.76,0.86-1.1l2.84-3.34h2.12l-3.74,3.98l4.26,5.7h-2.14l-3.34-4.64
		l-0.9,1v3.64h-1.74v-14.2h1.74V255.78z"/>
	<path class="st9" d="M1097.7,246.82h1.76v14.2h-1.76V246.82z"/>
	<path class="st9" d="M1111.42,256.1c0,3.58-2.48,5.14-4.82,5.14c-2.62,0-4.64-1.92-4.64-4.98c0-3.24,2.12-5.14,4.8-5.14
		C1109.54,251.12,1111.42,253.14,1111.42,256.1z M1103.74,256.2c0,2.12,1.22,3.72,2.94,3.72c1.68,0,2.94-1.58,2.94-3.76
		c0-1.64-0.82-3.72-2.9-3.72C1104.64,252.44,1103.74,254.36,1103.74,256.2z"/>
	<path class="st9" d="M1114.42,251.34l1.9,5.44c0.32,0.88,0.58,1.68,0.78,2.48h0.06c0.22-0.8,0.5-1.6,0.82-2.48l1.88-5.44h1.84
		l-3.8,9.68h-1.68l-3.68-9.68H1114.42z"/>
	<path class="st9" d="M1124.38,256.5c0.04,2.38,1.56,3.36,3.32,3.36c1.26,0,2.02-0.22,2.68-0.5l0.3,1.26
		c-0.62,0.28-1.68,0.6-3.22,0.6c-2.98,0-4.76-1.96-4.76-4.88c0-2.92,1.72-5.22,4.54-5.22c3.16,0,4,2.78,4,4.56
		c0,0.36-0.04,0.64-0.06,0.82H1124.38z M1129.54,255.24c0.02-1.12-0.46-2.86-2.44-2.86c-1.78,0-2.56,1.64-2.7,2.86H1129.54z"/>
	<path class="st9" d="M1133.66,254.36c0-1.14-0.02-2.12-0.08-3.02h1.54l0.06,1.9h0.08c0.44-1.3,1.5-2.12,2.68-2.12
		c0.2,0,0.34,0.02,0.5,0.06v1.66c-0.18-0.04-0.36-0.06-0.6-0.06c-1.24,0-2.12,0.94-2.36,2.26c-0.04,0.24-0.08,0.52-0.08,0.82v5.16
		h-1.74V254.36z"/>
	<path class="st9" d="M1140.2,259.22c0.52,0.34,1.44,0.7,2.32,0.7c1.28,0,1.88-0.64,1.88-1.44c0-0.84-0.5-1.3-1.8-1.78
		c-1.74-0.62-2.56-1.58-2.56-2.74c0-1.56,1.26-2.84,3.34-2.84c0.98,0,1.84,0.28,2.38,0.6l-0.44,1.28c-0.38-0.24-1.08-0.56-1.98-0.56
		c-1.04,0-1.62,0.6-1.62,1.32c0,0.8,0.58,1.16,1.84,1.64c1.68,0.64,2.54,1.48,2.54,2.92c0,1.7-1.32,2.9-3.62,2.9
		c-1.06,0-2.04-0.26-2.72-0.66L1140.2,259.22z"/>
</g>
<g>
	<path d="M876.16,360.66l-4.58-16.76h1.79c1.21,4.68,3.42,12.89,3.76,14.84h0.02c0.37-1.83,2.92-10.48,4.06-14.84h1.76
		c1.06,3.94,3.56,13.17,3.88,14.78h0.02c0.53-2.61,3.12-11.04,4.17-14.78h1.71l-5.02,16.76h-1.89c-1.06-3.91-3.47-12.83-3.81-14.52
		h-0.02c-0.46,2.32-2.85,10.5-4,14.52H876.16z"/>
	<path d="M894.97,343h1.61v2.46h-1.61V343z M894.97,348.58h1.61v12.08h-1.61V348.58z"/>
	<path d="M898.82,348.58H901v-3.67h1.61v3.67h2.78v1.39h-2.78v7.5c0,1.27,0.29,1.97,1.42,1.97c0.33,0,0.8-0.02,1.16-0.12v1.29
		c-0.46,0.18-1.1,0.22-1.64,0.22c-1.7,0-2.55-0.86-2.55-2.83v-8.02h-2.17V348.58z"/>
	<path d="M909.27,343v7.5c0.65-1.17,1.79-2.2,3.89-2.2c1.82,0,4.08,0.96,4.08,4.67v7.69h-1.6v-7.4c0-2.24-0.99-3.49-2.88-3.49
		c-2.29,0-3.48,1.46-3.48,4.22v6.68h-1.61V343H909.27z"/>
	<path d="M935.79,358.21c0,1.08,0.1,2.08,0.17,2.45h-1.54c-0.1-0.28-0.17-0.83-0.21-1.73c-0.42,0.85-1.43,2.02-3.86,2.02
		c-2.82,0-4.03-1.83-4.03-3.65c0-2.67,2.08-3.89,5.69-3.89c0.93,0,1.72,0,2.19,0v-1.14c0-1.14-0.35-2.62-2.88-2.62
		c-2.25,0-2.6,1.15-2.84,2.12h-1.58c0.15-1.48,1.07-3.48,4.46-3.47c2.84,0,4.43,1.18,4.43,3.88V358.21z M934.22,354.62
		c-0.43,0-1.45,0-2.18,0c-2.56,0-4.05,0.68-4.05,2.59c0,1.4,0.98,2.38,2.58,2.38c3.21,0,3.65-2.14,3.65-4.56V354.62z"/>
	<path d="M946.09,360.66v-10.68h-2.02v-1.39h2.02v-1.59c0-2.12,0.7-4.23,3.39-4.23c0.4,0,0.96,0.07,1.25,0.16v1.44
		c-0.33-0.08-0.85-0.13-1.19-0.13c-1.34,0-1.84,0.89-1.84,2.84v1.51h2.54v1.39h-2.54v10.68H946.09z"/>
	<path d="M952.16,351.86c0-1.87-0.02-2.78-0.02-3.28h1.58c0.03,0.36,0.06,1.22,0.06,2.6c0.67-1.73,2.17-2.8,4.14-2.88v1.66
		c-2.5,0.13-4.14,1.66-4.14,4.62v6.09h-1.61V351.86z"/>
	<path d="M960.77,354.87c0.02,2.81,1.44,4.66,3.63,4.66c2.11,0,2.81-1.15,3.22-2.09h1.63c-0.49,1.57-1.78,3.5-4.91,3.5
		c-3.73,0-5.21-3.13-5.21-6.22c0-3.52,1.76-6.44,5.35-6.44c3.8,0,5.03,3.17,5.03,5.58c0,0.35,0,0.68-0.03,1H960.77z M967.87,353.62
		c-0.02-2.21-1.19-3.96-3.42-3.96c-2.32,0-3.37,1.62-3.61,3.96H967.87z"/>
	<path d="M973.21,354.87c0.02,2.81,1.44,4.66,3.63,4.66c2.11,0,2.81-1.15,3.22-2.09h1.63c-0.49,1.57-1.78,3.5-4.91,3.5
		c-3.73,0-5.21-3.13-5.21-6.22c0-3.52,1.76-6.44,5.35-6.44c3.8,0,5.03,3.17,5.03,5.58c0,0.35,0,0.68-0.03,1H973.21z M980.3,353.62
		c-0.02-2.21-1.19-3.96-3.42-3.96c-2.32,0-3.37,1.62-3.61,3.96H980.3z"/>
	<path d="M999.51,358.21c0,1.08,0.1,2.08,0.17,2.45h-1.54c-0.1-0.28-0.17-0.83-0.21-1.73c-0.42,0.85-1.43,2.02-3.86,2.02
		c-2.82,0-4.03-1.83-4.03-3.65c0-2.67,2.08-3.89,5.69-3.89c0.93,0,1.72,0,2.19,0v-1.14c0-1.14-0.35-2.62-2.88-2.62
		c-2.25,0-2.6,1.15-2.84,2.12h-1.58c0.15-1.48,1.07-3.48,4.46-3.47c2.84,0,4.43,1.18,4.43,3.88V358.21z M997.94,354.62
		c-0.43,0-1.45,0-2.18,0c-2.56,0-4.05,0.68-4.05,2.59c0,1.4,0.98,2.38,2.58,2.38c3.21,0,3.65-2.14,3.65-4.56V354.62z"/>
	<path d="M1012.49,357.04c-0.55,2.1-1.95,3.9-4.83,3.9c-3.16,0-5.27-2.31-5.27-6.27c0-3.36,1.84-6.38,5.42-6.38
		c3.26,0,4.49,2.31,4.68,3.94h-1.61c-0.33-1.32-1.18-2.53-3.1-2.53c-2.37,0-3.71,2.02-3.71,4.91c0,2.82,1.27,4.92,3.61,4.92
		c1.65,0,2.63-0.85,3.19-2.5H1012.49z"/>
	<path d="M1024.47,357.04c-0.55,2.1-1.95,3.9-4.83,3.9c-3.16,0-5.27-2.31-5.27-6.27c0-3.36,1.84-6.38,5.42-6.38
		c3.26,0,4.49,2.31,4.68,3.94h-1.61c-0.33-1.32-1.18-2.53-3.1-2.53c-2.37,0-3.71,2.02-3.71,4.91c0,2.82,1.27,4.92,3.61,4.92
		c1.65,0,2.63-0.85,3.19-2.5H1024.47z"/>
	<path d="M1037.31,354.59c0,3.41-1.92,6.35-5.56,6.35c-3.35,0-5.41-2.68-5.41-6.32c0-3.51,1.97-6.33,5.54-6.33
		C1035.16,348.29,1037.31,350.8,1037.31,354.59z M1028.02,354.62c0,2.77,1.44,4.91,3.83,4.91c2.43,0,3.79-2.01,3.79-4.91
		c0-2.79-1.35-4.92-3.84-4.92C1029.27,349.7,1028.02,351.78,1028.02,354.62z"/>
	<path d="M1049.5,357.13c0,1.18,0.02,2.95,0.02,3.52h-1.56c-0.05-0.32-0.07-1.08-0.08-1.97c-0.55,1.39-1.75,2.26-3.78,2.26
		c-1.87,0-3.97-0.83-3.97-4.39v-7.97h1.59v7.61c0,1.68,0.53,3.28,2.74,3.28c2.48,0,3.43-1.39,3.43-4.64v-6.25h1.61V357.13z"/>
	<path d="M1053.28,351.62c0-1.06,0-2.09-0.02-3.04h1.57c0.05,0.37,0.08,1.81,0.06,2.15c0.51-1.14,1.5-2.44,3.92-2.44
		c2.2,0,4.05,1.29,4.05,4.57v7.8h-1.61v-7.57c0-2-0.81-3.32-2.79-3.32c-2.6,0-3.56,2.09-3.56,4.63v6.27h-1.61V351.62z"/>
	<path d="M1064.83,348.58h2.17v-3.67h1.61v3.67h2.78v1.39h-2.78v7.5c0,1.27,0.29,1.97,1.42,1.97c0.33,0,0.8-0.02,1.16-0.12v1.29
		c-0.46,0.18-1.1,0.22-1.64,0.22c-1.7,0-2.55-0.86-2.55-2.83v-8.02h-2.17V348.58z"/>
	<path d="M1072.91,363.4c1.21-2.49,1.61-4.61,1.7-6.02h1.62c-0.18,2.06-0.96,4.49-1.95,6.02H1072.91z"/>
	<path d="M1085.57,348.58c2.22,6.4,3.28,9.41,3.65,10.68h0.02c0.44-1.43,1.36-4.21,3.53-10.68h1.64l-4.45,12.71
		c-1.26,3.56-2.14,4.4-4.45,4.4c-0.41,0-0.77-0.02-1.2-0.08v-1.48c0.34,0.04,0.68,0.07,1.05,0.07c1.64,0,2.21-0.77,3.02-3.04
		l-4.57-12.58H1085.57z"/>
	<path d="M1106.75,354.59c0,3.41-1.92,6.35-5.56,6.35c-3.35,0-5.41-2.68-5.41-6.32c0-3.51,1.97-6.33,5.54-6.33
		C1104.59,348.29,1106.75,350.8,1106.75,354.59z M1097.45,354.62c0,2.77,1.44,4.91,3.83,4.91c2.43,0,3.79-2.01,3.79-4.91
		c0-2.79-1.35-4.92-3.84-4.92C1098.7,349.7,1097.45,351.78,1097.45,354.62z"/>
	<path d="M1118.94,357.13c0,1.18,0.02,2.95,0.02,3.52h-1.56c-0.05-0.32-0.07-1.08-0.08-1.97c-0.55,1.39-1.75,2.26-3.78,2.26
		c-1.87,0-3.97-0.83-3.97-4.39v-7.97h1.59v7.61c0,1.68,0.53,3.28,2.74,3.28c2.48,0,3.43-1.39,3.43-4.64v-6.25h1.61V357.13z"/>
	<path d="M1138.06,357.04c-0.55,2.1-1.95,3.9-4.83,3.9c-3.16,0-5.27-2.31-5.27-6.27c0-3.36,1.84-6.38,5.42-6.38
		c3.26,0,4.49,2.31,4.68,3.94h-1.61c-0.33-1.32-1.18-2.53-3.1-2.53c-2.37,0-3.71,2.02-3.71,4.91c0,2.82,1.27,4.92,3.61,4.92
		c1.65,0,2.63-0.85,3.19-2.5H1138.06z"/>
	<path d="M1149.41,358.21c0,1.08,0.1,2.08,0.17,2.45h-1.54c-0.1-0.28-0.17-0.83-0.21-1.73c-0.42,0.85-1.43,2.02-3.86,2.02
		c-2.82,0-4.03-1.83-4.03-3.65c0-2.67,2.08-3.89,5.69-3.89c0.93,0,1.72,0,2.19,0v-1.14c0-1.14-0.35-2.62-2.88-2.62
		c-2.25,0-2.6,1.15-2.84,2.12h-1.58c0.15-1.48,1.07-3.48,4.46-3.47c2.84,0,4.43,1.18,4.43,3.88V358.21z M1147.84,354.62
		c-0.43,0-1.45,0-2.18,0c-2.56,0-4.05,0.68-4.05,2.59c0,1.4,0.98,2.38,2.58,2.38c3.21,0,3.65-2.14,3.65-4.56V354.62z"/>
	<path d="M1153.21,351.62c0-1.06,0-2.09-0.02-3.04h1.57c0.05,0.37,0.08,1.81,0.06,2.15c0.51-1.14,1.5-2.44,3.92-2.44
		c2.2,0,4.05,1.29,4.05,4.57v7.8h-1.61v-7.57c0-2-0.81-3.32-2.79-3.32c-2.6,0-3.56,2.09-3.56,4.63v6.27h-1.61V351.62z"/>
	<path d="M1181.33,358.21c0,1.08,0.1,2.08,0.17,2.45h-1.54c-0.1-0.28-0.17-0.83-0.21-1.73c-0.42,0.85-1.43,2.02-3.86,2.02
		c-2.82,0-4.03-1.83-4.03-3.65c0-2.67,2.08-3.89,5.69-3.89c0.93,0,1.72,0,2.19,0v-1.14c0-1.14-0.35-2.62-2.88-2.62
		c-2.25,0-2.6,1.15-2.84,2.12h-1.58c0.15-1.48,1.07-3.48,4.46-3.47c2.84,0,4.43,1.18,4.43,3.88V358.21z M1179.76,354.62
		c-0.43,0-1.45,0-2.18,0c-2.56,0-4.05,0.68-4.05,2.59c0,1.4,0.98,2.38,2.58,2.38c3.21,0,3.65-2.14,3.65-4.56V354.62z"/>
	<path d="M1194.78,343v14.21c0,1.15,0,2.26,0.02,3.45h-1.54c-0.05-0.3-0.08-1.34-0.09-1.89c-0.6,1.38-1.89,2.17-3.94,2.17
		c-3.12,0-5.02-2.54-5.02-6.19c0-3.72,2.06-6.46,5.37-6.46c2.29,0,3.25,0.96,3.59,1.69V343H1194.78z M1185.9,354.7
		c0,3.13,1.57,4.82,3.56,4.82c3.02,0,3.78-2.15,3.78-5.14c0-2.92-0.66-4.66-3.58-4.66C1187.38,349.72,1185.9,351.52,1185.9,354.7z"
		/>
	<path d="M1208.2,343v14.21c0,1.15,0,2.26,0.02,3.45h-1.54c-0.05-0.3-0.08-1.34-0.09-1.89c-0.6,1.38-1.89,2.17-3.94,2.17
		c-3.12,0-5.02-2.54-5.02-6.19c0-3.72,2.06-6.46,5.37-6.46c2.29,0,3.25,0.96,3.59,1.69V343H1208.2z M1199.31,354.7
		c0,3.13,1.57,4.82,3.56,4.82c3.02,0,3.78-2.15,3.78-5.14c0-2.92-0.66-4.66-3.58-4.66C1200.8,349.72,1199.31,351.52,1199.31,354.7z"
		/>
	<path d="M1227.46,357.13c0,1.18,0.02,2.95,0.02,3.52h-1.56c-0.05-0.32-0.07-1.08-0.08-1.97c-0.55,1.39-1.75,2.26-3.78,2.26
		c-1.87,0-3.97-0.83-3.97-4.39v-7.97h1.59v7.61c0,1.68,0.53,3.28,2.74,3.28c2.48,0,3.43-1.39,3.43-4.64v-6.25h1.61V357.13z"/>
	<path d="M1232.84,359v6.45h-1.6v-13.91c0-0.99,0-2.03-0.02-2.96h1.57c0.05,0.43,0.06,1.16,0.06,2.05c0.71-1.34,1.99-2.34,4.11-2.34
		c2.82,0,4.83,2.37,4.83,6.02c0,4.33-2.32,6.64-5.25,6.64C1234.48,360.94,1233.41,360.06,1232.84,359z M1240.1,354.37
		c0-2.69-1.27-4.63-3.51-4.63c-2.73,0-3.84,1.72-3.84,4.85c0,3.06,0.88,4.94,3.67,4.94C1238.8,359.52,1240.1,357.54,1240.1,354.37z"
		/>
	<path d="M871.2,377.38h2.17v-3.67h1.61v3.67h2.78v1.39h-2.78v7.5c0,1.27,0.29,1.97,1.42,1.97c0.33,0,0.8-0.02,1.16-0.12v1.29
		c-0.46,0.18-1.1,0.22-1.64,0.22c-1.7,0-2.55-0.86-2.55-2.83v-8.02h-2.17V377.38z"/>
	<path d="M890.03,383.39c0,3.41-1.92,6.35-5.56,6.35c-3.35,0-5.41-2.68-5.41-6.32c0-3.51,1.97-6.33,5.54-6.33
		C887.87,377.09,890.03,379.6,890.03,383.39z M880.73,383.42c0,2.77,1.44,4.91,3.83,4.91c2.43,0,3.79-2.01,3.79-4.91
		c0-2.79-1.35-4.92-3.84-4.92C881.98,378.5,880.73,380.58,880.73,383.42z"/>
	<path d="M898.27,389.46v-0.1c0-2.11,1.6-4.52,4.79-6.98c2.64-2.04,3.34-2.68,3.34-4.56c0-1.66-0.91-3.02-3.01-3.02
		c-2.05,0-3.07,1.02-3.45,3.15h-1.61c0.3-2.66,1.98-4.58,5.05-4.58c3.35,0,4.72,2.23,4.72,4.39c0,2.42-1.02,3.29-3.95,5.63
		c-2.26,1.8-3.56,3.2-4,4.59h8.59l-0.25,1.48H898.27z"/>
	<path d="M921.57,381.44c0,3.75-1.02,8.3-5.33,8.3c-4.2,0-5.31-4.21-5.31-8.18c0-3.95,1.19-8.19,5.38-8.19
		C920.49,373.38,921.57,377.56,921.57,381.44z M912.68,381.57c0,3.04,0.59,6.73,3.57,6.73c3.03,0,3.59-3.52,3.59-6.86
		c0-3.03-0.58-6.63-3.51-6.63C913.29,374.82,912.68,378.08,912.68,381.57z"/>
	<path d="M934.77,381.44c0,3.75-1.02,8.3-5.33,8.3c-4.2,0-5.31-4.21-5.31-8.18c0-3.95,1.19-8.19,5.38-8.19
		C933.69,373.38,934.77,377.56,934.77,381.44z M925.88,381.57c0,3.04,0.59,6.73,3.57,6.73c3.03,0,3.59-3.52,3.59-6.86
		c0-3.03-0.58-6.63-3.51-6.63C926.49,374.82,925.88,378.08,925.88,381.57z"/>
	<path d="M944.1,371.8h1.61v7.47c0.56-1.13,1.71-2.18,4-2.18c2.93,0,4.95,2.41,4.95,6.07c0,3.75-1.86,6.58-5.26,6.58
		c-1.99,0-3.08-0.77-3.7-2.05c0,0.7-0.03,1.43-0.06,1.77h-1.56c0.02-1.36,0.02-2.73,0.02-4.1V371.8z M952.98,383.19
		c0-2.83-1.36-4.68-3.56-4.68c-2.81,0-3.8,1.9-3.8,4.93c0,2.7,0.88,4.87,3.68,4.87C951.6,388.32,952.98,386.39,952.98,383.19z"/>
	<path d="M967.71,383.39c0,3.41-1.92,6.35-5.56,6.35c-3.35,0-5.41-2.68-5.41-6.32c0-3.51,1.97-6.33,5.54-6.33
		C965.56,377.09,967.71,379.6,967.71,383.39z M958.42,383.42c0,2.77,1.44,4.91,3.83,4.91c2.43,0,3.79-2.01,3.79-4.91
		c0-2.79-1.35-4.92-3.84-4.92C959.67,378.5,958.42,380.58,958.42,383.42z"/>
	<path d="M980.77,383.39c0,3.41-1.92,6.35-5.56,6.35c-3.35,0-5.41-2.68-5.41-6.32c0-3.51,1.97-6.33,5.54-6.33
		C978.61,377.09,980.77,379.6,980.77,383.39z M971.47,383.42c0,2.77,1.44,4.91,3.83,4.91c2.43,0,3.79-2.01,3.79-4.91
		c0-2.79-1.35-4.92-3.84-4.92C972.72,378.5,971.47,380.58,971.47,383.42z"/>
	<path d="M985.23,383.4c1.07-1.19,4.12-4.33,5.75-6.02h1.97l-4.68,4.76l5.24,7.32h-1.93l-4.44-6.29l-1.92,1.85v4.44h-1.61V371.8
		h1.61V383.4z"/>
	<path d="M996.14,386.07c0.38,1.46,1.43,2.32,3.22,2.32c1.98,0,2.77-0.89,2.77-2.12c0-1.26-0.57-1.87-3.09-2.48
		c-3.27-0.79-4.02-1.78-4.02-3.4c0-1.69,1.26-3.3,4.16-3.3c2.9,0,4.2,1.73,4.37,3.43h-1.58c-0.2-0.91-0.9-2.09-2.86-2.09
		c-1.92,0-2.47,0.94-2.47,1.82c0,1.02,0.54,1.52,2.85,2.08c3.52,0.84,4.32,2,4.32,3.81c0,2.16-1.74,3.6-4.49,3.6
		c-2.92,0-4.46-1.51-4.79-3.68H996.14z"/>
	<path d="M1011.12,377.38h2.17v-3.67h1.61v3.67h2.78v1.39h-2.78v7.5c0,1.27,0.29,1.97,1.42,1.97c0.33,0,0.8-0.02,1.16-0.12v1.29
		c-0.46,0.18-1.1,0.22-1.64,0.22c-1.7,0-2.55-0.86-2.55-2.83v-8.02h-2.17V377.38z"/>
	<path d="M1029.95,383.39c0,3.41-1.92,6.35-5.56,6.35c-3.35,0-5.41-2.68-5.41-6.32c0-3.51,1.97-6.33,5.54-6.33
		C1027.79,377.09,1029.95,379.6,1029.95,383.39z M1020.65,383.42c0,2.77,1.44,4.91,3.83,4.91c2.43,0,3.79-2.01,3.79-4.91
		c0-2.79-1.35-4.92-3.84-4.92C1021.9,378.5,1020.65,380.58,1020.65,383.42z"/>
	<path d="M1039.13,377.38c2.22,6.4,3.28,9.41,3.65,10.68h0.02c0.44-1.43,1.36-4.21,3.53-10.68h1.64l-4.45,12.71
		c-1.26,3.56-2.14,4.4-4.45,4.4c-0.41,0-0.77-0.02-1.2-0.08v-1.49c0.34,0.04,0.68,0.07,1.05,0.07c1.64,0,2.21-0.77,3.02-3.04
		l-4.57-12.58H1039.13z"/>
	<path d="M1060.31,383.39c0,3.41-1.92,6.35-5.56,6.35c-3.35,0-5.41-2.68-5.41-6.32c0-3.51,1.97-6.33,5.54-6.33
		C1058.15,377.09,1060.31,379.6,1060.31,383.39z M1051.01,383.42c0,2.77,1.44,4.91,3.83,4.91c2.43,0,3.79-2.01,3.79-4.91
		c0-2.79-1.35-4.92-3.84-4.92C1052.26,378.5,1051.01,380.58,1051.01,383.42z"/>
	<path d="M1072.5,385.93c0,1.18,0.02,2.95,0.02,3.52h-1.56c-0.05-0.32-0.07-1.08-0.08-1.97c-0.55,1.38-1.75,2.26-3.78,2.26
		c-1.87,0-3.97-0.83-3.97-4.39v-7.97h1.59v7.61c0,1.68,0.53,3.28,2.74,3.28c2.48,0,3.43-1.39,3.43-4.64v-6.25h1.61V385.93z"/>
	<path d="M1076.27,380.66c0-1.87-0.02-2.78-0.02-3.28h1.58c0.03,0.36,0.06,1.22,0.06,2.6c0.67-1.73,2.17-2.8,4.14-2.88v1.66
		c-2.5,0.13-4.14,1.66-4.14,4.62v6.09h-1.61V380.66z"/>
	<path d="M1090.52,389.46V371.8h1.61v17.66H1090.52z"/>
	<path d="M1095.92,371.8h1.61v2.46h-1.61V371.8z M1095.92,377.38h1.61v12.08h-1.61V377.38z"/>
	<path d="M1101.32,371.8h1.61v7.47c0.56-1.13,1.71-2.18,4-2.18c2.93,0,4.95,2.41,4.95,6.07c0,3.75-1.86,6.58-5.26,6.58
		c-1.99,0-3.08-0.77-3.7-2.05c0,0.7-0.03,1.43-0.06,1.77h-1.56c0.02-1.36,0.02-2.73,0.02-4.1V371.8z M1110.2,383.19
		c0-2.83-1.36-4.68-3.56-4.68c-2.81,0-3.8,1.9-3.8,4.93c0,2.7,0.88,4.87,3.68,4.87C1108.82,388.32,1110.2,386.39,1110.2,383.19z"/>
	<path d="M1114.74,380.66c0-1.87-0.02-2.78-0.02-3.28h1.58c0.03,0.36,0.06,1.22,0.06,2.6c0.67-1.73,2.17-2.8,4.14-2.88v1.66
		c-2.5,0.13-4.14,1.66-4.14,4.62v6.09h-1.61V380.66z"/>
	<path d="M1131.03,387.01c0,1.08,0.1,2.08,0.17,2.45h-1.54c-0.1-0.28-0.17-0.83-0.21-1.73c-0.42,0.85-1.43,2.02-3.86,2.02
		c-2.82,0-4.03-1.83-4.03-3.65c0-2.67,2.08-3.89,5.69-3.89c0.93,0,1.72,0,2.19,0v-1.14c0-1.14-0.35-2.62-2.88-2.62
		c-2.25,0-2.6,1.15-2.84,2.12h-1.58c0.15-1.48,1.07-3.48,4.46-3.47c2.84,0,4.43,1.18,4.43,3.88V387.01z M1129.45,383.42
		c-0.43,0-1.45,0-2.18,0c-2.56,0-4.05,0.68-4.05,2.59c0,1.4,0.98,2.38,2.58,2.38c3.21,0,3.65-2.14,3.65-4.56V383.42z"/>
	<path d="M1134.83,380.66c0-1.87-0.02-2.78-0.02-3.28h1.58c0.03,0.36,0.06,1.22,0.06,2.6c0.67-1.73,2.17-2.8,4.14-2.88v1.66
		c-2.5,0.13-4.14,1.66-4.14,4.62v6.09h-1.61V380.66z"/>
	<path d="M1143.81,377.38c2.22,6.4,3.28,9.41,3.65,10.68h0.02c0.44-1.43,1.36-4.21,3.53-10.68h1.64l-4.45,12.71
		c-1.26,3.56-2.14,4.4-4.45,4.4c-0.41,0-0.77-0.02-1.2-0.08v-1.49c0.34,0.04,0.68,0.07,1.05,0.07c1.64,0,2.21-0.77,3.02-3.04
		l-4.57-12.58H1143.81z"/>
	<path d="M1169.64,387.01c0,1.08,0.1,2.08,0.17,2.45h-1.54c-0.1-0.28-0.17-0.83-0.21-1.73c-0.42,0.85-1.43,2.02-3.86,2.02
		c-2.82,0-4.03-1.83-4.03-3.65c0-2.67,2.08-3.89,5.69-3.89c0.93,0,1.72,0,2.19,0v-1.14c0-1.14-0.35-2.62-2.88-2.62
		c-2.25,0-2.6,1.15-2.84,2.12h-1.58c0.15-1.48,1.07-3.48,4.46-3.47c2.84,0,4.43,1.18,4.43,3.88V387.01z M1168.07,383.42
		c-0.43,0-1.45,0-2.18,0c-2.56,0-4.05,0.68-4.05,2.59c0,1.4,0.98,2.38,2.58,2.38c3.21,0,3.65-2.14,3.65-4.56V383.42z"/>
	<path d="M1173.44,380.42c0-1.06,0-2.09-0.02-3.04h1.57c0.05,0.37,0.08,1.81,0.06,2.15c0.51-1.14,1.5-2.44,3.92-2.44
		c2.2,0,4.05,1.29,4.05,4.57v7.8h-1.61v-7.57c0-2-0.81-3.32-2.79-3.32c-2.6,0-3.56,2.09-3.56,4.63v6.27h-1.61V380.42z"/>
	<path d="M1196.44,371.8v14.21c0,1.15,0,2.26,0.02,3.45h-1.54c-0.05-0.3-0.08-1.34-0.09-1.88c-0.6,1.38-1.89,2.17-3.94,2.17
		c-3.12,0-5.02-2.54-5.02-6.19c0-3.72,2.06-6.46,5.37-6.46c2.29,0,3.25,0.96,3.59,1.69v-6.98H1196.44z M1187.55,383.5
		c0,3.13,1.57,4.82,3.56,4.82c3.02,0,3.78-2.15,3.78-5.14c0-2.92-0.66-4.66-3.58-4.66C1189.04,378.52,1187.55,380.32,1187.55,383.5z
		"/>
	<path d="M873.35,414.87c0.38,1.46,1.43,2.32,3.22,2.32c1.98,0,2.77-0.89,2.77-2.12c0-1.26-0.57-1.87-3.09-2.48
		c-3.27-0.79-4.02-1.78-4.02-3.4c0-1.69,1.26-3.3,4.16-3.3c2.9,0,4.2,1.73,4.37,3.43h-1.58c-0.2-0.91-0.9-2.09-2.86-2.09
		c-1.92,0-2.47,0.94-2.47,1.82c0,1.02,0.54,1.52,2.85,2.08c3.52,0.84,4.32,2,4.32,3.81c0,2.16-1.74,3.6-4.49,3.6
		c-2.92,0-4.46-1.51-4.79-3.68H873.35z"/>
	<path d="M885.27,400.6v7.5c0.65-1.17,1.79-2.2,3.89-2.2c1.82,0,4.08,0.96,4.08,4.67v7.69h-1.6v-7.4c0-2.24-0.99-3.49-2.88-3.49
		c-2.29,0-3.48,1.46-3.48,4.22v6.68h-1.61V400.6H885.27z"/>
	<path d="M905.48,415.81c0,1.08,0.1,2.08,0.17,2.45h-1.54c-0.1-0.28-0.17-0.83-0.21-1.73c-0.42,0.85-1.43,2.02-3.86,2.02
		c-2.82,0-4.03-1.83-4.03-3.65c0-2.67,2.08-3.89,5.69-3.89c0.93,0,1.72,0,2.19,0v-1.14c0-1.14-0.35-2.62-2.88-2.62
		c-2.25,0-2.6,1.15-2.84,2.12h-1.58c0.15-1.48,1.07-3.48,4.46-3.47c2.84,0,4.43,1.18,4.43,3.88V415.81z M903.9,412.22
		c-0.43,0-1.45,0-2.18,0c-2.56,0-4.05,0.68-4.05,2.59c0,1.4,0.98,2.38,2.58,2.38c3.21,0,3.65-2.14,3.65-4.56V412.22z"/>
	<path d="M909.28,409.46c0-1.87-0.02-2.78-0.02-3.28h1.58c0.03,0.37,0.06,1.22,0.06,2.6c0.67-1.73,2.17-2.8,4.14-2.88v1.66
		c-2.5,0.13-4.14,1.66-4.14,4.62v6.09h-1.61V409.46z"/>
	<path d="M917.89,412.47c0.02,2.82,1.44,4.66,3.63,4.66c2.11,0,2.81-1.14,3.22-2.09h1.63c-0.49,1.57-1.78,3.5-4.91,3.5
		c-3.73,0-5.21-3.13-5.21-6.22c0-3.52,1.76-6.44,5.35-6.44c3.8,0,5.03,3.17,5.03,5.58c0,0.35,0,0.68-0.03,1H917.89z M924.98,411.22
		c-0.02-2.21-1.19-3.96-3.42-3.96c-2.32,0-3.37,1.62-3.61,3.96H924.98z"/>
	<path d="M933.89,406.18h2.17v-3.67h1.61v3.67h2.78v1.39h-2.78v7.5c0,1.27,0.29,1.97,1.42,1.97c0.33,0,0.8-0.02,1.16-0.12v1.29
		c-0.46,0.18-1.1,0.22-1.64,0.22c-1.7,0-2.55-0.86-2.55-2.83v-8.02h-2.17V406.18z"/>
	<path d="M944.34,400.6v7.5c0.65-1.17,1.79-2.2,3.89-2.2c1.82,0,4.08,0.96,4.08,4.67v7.69h-1.6v-7.4c0-2.24-0.99-3.49-2.88-3.49
		c-2.29,0-3.48,1.46-3.48,4.22v6.68h-1.61V400.6H944.34z"/>
	<path d="M956.79,412.47c0.02,2.82,1.44,4.66,3.63,4.66c2.11,0,2.81-1.14,3.22-2.09h1.63c-0.49,1.57-1.78,3.5-4.91,3.5
		c-3.73,0-5.21-3.13-5.21-6.22c0-3.52,1.76-6.44,5.35-6.44c3.8,0,5.03,3.17,5.03,5.58c0,0.35,0,0.68-0.03,1H956.79z M963.89,411.22
		c-0.02-2.21-1.19-3.96-3.42-3.96c-2.32,0-3.37,1.62-3.61,3.96H963.89z"/>
	<path d="M968.36,409.29c0-1.04,0-2.16-0.02-3.12h1.56c0.03,0.39,0.08,1.36,0.06,2.02c0.53-1.15,1.61-2.3,3.57-2.3
		c1.7,0,2.96,0.86,3.43,2.29c0.62-1.21,1.8-2.29,3.9-2.29c1.91,0,3.8,1.11,3.8,4.42v7.94h-1.59v-7.75c0-1.52-0.54-3.15-2.63-3.15
		c-2.17,0-3.14,1.7-3.14,3.95v6.95h-1.58v-7.71c0-1.67-0.49-3.19-2.56-3.19c-2.16,0-3.2,1.84-3.2,4.24v6.66h-1.6V409.29z"/>
	<path d="M995.09,406.18c1.66,5.97,2.61,9.39,2.81,10.54h0.03c0.2-1.04,1.25-4.47,3.06-10.54h1.64c2.08,7.18,2.71,9.25,2.92,10.26
		h0.02c0.32-1.31,0.84-3.12,2.91-10.26h1.66l-3.77,12.08h-1.75c-1.25-4.33-2.63-9.04-2.88-10.25h-0.02
		c-0.23,1.25-1.47,5.27-2.95,10.25h-1.85l-3.53-12.08H995.09z"/>
	<path d="M1012.57,400.6h1.61v2.46h-1.61V400.6z M1012.57,406.18h1.61v12.08h-1.61V406.18z"/>
	<path d="M1016.42,406.18h2.17v-3.67h1.61v3.67h2.78v1.39h-2.78v7.5c0,1.27,0.29,1.97,1.42,1.97c0.33,0,0.8-0.02,1.16-0.12v1.29
		c-0.46,0.18-1.1,0.22-1.64,0.22c-1.7,0-2.55-0.86-2.55-2.83v-8.02h-2.17V406.18z"/>
	<path d="M1026.87,400.6v7.5c0.65-1.17,1.79-2.2,3.89-2.2c1.82,0,4.08,0.96,4.08,4.67v7.69h-1.6v-7.4c0-2.24-0.99-3.49-2.88-3.49
		c-2.29,0-3.48,1.46-3.48,4.22v6.68h-1.61V400.6H1026.87z"/>
	<path d="M1054.83,412.19c0,3.41-1.92,6.35-5.56,6.35c-3.35,0-5.41-2.68-5.41-6.32c0-3.51,1.97-6.33,5.54-6.33
		C1052.67,405.89,1054.83,408.4,1054.83,412.19z M1045.54,412.22c0,2.77,1.44,4.91,3.83,4.91c2.43,0,3.79-2,3.79-4.91
		c0-2.79-1.35-4.92-3.84-4.92C1046.79,407.3,1045.54,409.38,1045.54,412.22z"/>
	<path d="M1056,406.18h2.17v-3.67h1.61v3.67h2.78v1.39h-2.78v7.5c0,1.27,0.29,1.97,1.42,1.97c0.33,0,0.8-0.02,1.16-0.12v1.29
		c-0.46,0.18-1.1,0.22-1.64,0.22c-1.7,0-2.55-0.86-2.55-2.83v-8.02H1056V406.18z"/>
	<path d="M1066.45,400.6v7.5c0.65-1.17,1.79-2.2,3.89-2.2c1.82,0,4.08,0.96,4.08,4.67v7.69h-1.6v-7.4c0-2.24-0.99-3.49-2.88-3.49
		c-2.29,0-3.48,1.46-3.48,4.22v6.68h-1.61V400.6H1066.45z"/>
	<path d="M1078.9,412.47c0.02,2.82,1.44,4.66,3.63,4.66c2.11,0,2.81-1.14,3.22-2.09h1.63c-0.49,1.57-1.78,3.5-4.91,3.5
		c-3.73,0-5.21-3.13-5.21-6.22c0-3.52,1.76-6.44,5.35-6.44c3.8,0,5.03,3.17,5.03,5.58c0,0.35,0,0.68-0.03,1H1078.9z M1086,411.22
		c-0.02-2.21-1.19-3.96-3.42-3.96c-2.32,0-3.37,1.62-3.61,3.96H1086z"/>
	<path d="M1090.47,409.46c0-1.87-0.02-2.78-0.02-3.28h1.58c0.03,0.37,0.06,1.22,0.06,2.6c0.67-1.73,2.17-2.8,4.14-2.88v1.66
		c-2.5,0.13-4.14,1.66-4.14,4.62v6.09h-1.61V409.46z"/>
	<path d="M1114.06,414.73c0,1.18,0.02,2.95,0.02,3.52h-1.56c-0.05-0.32-0.07-1.08-0.08-1.97c-0.55,1.38-1.75,2.26-3.78,2.26
		c-1.87,0-3.97-0.83-3.97-4.39v-7.97h1.59v7.61c0,1.68,0.53,3.28,2.74,3.28c2.48,0,3.43-1.39,3.43-4.64v-6.25h1.61V414.73z"/>
	<path d="M1118.15,414.87c0.38,1.46,1.43,2.32,3.22,2.32c1.98,0,2.77-0.89,2.77-2.12c0-1.26-0.57-1.87-3.09-2.48
		c-3.27-0.79-4.02-1.78-4.02-3.4c0-1.69,1.26-3.3,4.16-3.3c2.9,0,4.2,1.73,4.37,3.43h-1.58c-0.2-0.91-0.9-2.09-2.86-2.09
		c-1.92,0-2.47,0.94-2.47,1.82c0,1.02,0.54,1.52,2.85,2.08c3.52,0.84,4.32,2,4.32,3.81c0,2.16-1.74,3.6-4.49,3.6
		c-2.92,0-4.46-1.51-4.79-3.68H1118.15z"/>
	<path d="M1129.39,412.47c0.02,2.82,1.44,4.66,3.63,4.66c2.11,0,2.81-1.14,3.22-2.09h1.63c-0.49,1.57-1.78,3.5-4.91,3.5
		c-3.73,0-5.21-3.13-5.21-6.22c0-3.52,1.76-6.44,5.35-6.44c3.8,0,5.03,3.17,5.03,5.58c0,0.35,0,0.68-0.03,1H1129.39z
		 M1136.49,411.22c-0.02-2.21-1.19-3.96-3.42-3.96c-2.32,0-3.37,1.62-3.61,3.96H1136.49z"/>
	<path d="M1140.97,409.46c0-1.87-0.02-2.78-0.02-3.28h1.58c0.03,0.37,0.06,1.22,0.06,2.6c0.67-1.73,2.17-2.8,4.14-2.88v1.66
		c-2.5,0.13-4.14,1.66-4.14,4.62v6.09h-1.61V409.46z"/>
	<path d="M1149.59,414.87c0.38,1.46,1.43,2.32,3.22,2.32c1.98,0,2.77-0.89,2.77-2.12c0-1.26-0.57-1.87-3.09-2.48
		c-3.27-0.79-4.02-1.78-4.02-3.4c0-1.69,1.26-3.3,4.16-3.3c2.9,0,4.2,1.73,4.37,3.43h-1.58c-0.2-0.91-0.9-2.09-2.86-2.09
		c-1.92,0-2.47,0.94-2.47,1.82c0,1.02,0.54,1.52,2.85,2.08c3.52,0.84,4.32,2,4.32,3.81c0,2.16-1.74,3.6-4.49,3.6
		c-2.92,0-4.46-1.51-4.79-3.68H1149.59z"/>
	<path d="M1159.93,418.26v-3.3h1.65v3.3H1159.93z"/>
</g>
<g>
	<g>
		<path class="st8" d="M408.67,533.1c-0.1-1.88-0.22-4.14-0.2-5.82h-0.06c-0.46,1.58-1.02,3.26-1.7,5.12l-2.38,6.54h-1.32
			l-2.18-6.42c-0.64-1.9-1.18-3.64-1.56-5.24h-0.04c-0.04,1.68-0.14,3.94-0.26,5.96l-0.36,5.78h-1.66l0.94-13.48h2.22l2.3,6.52
			c0.56,1.66,1.02,3.14,1.36,4.54h0.06c0.34-1.36,0.82-2.84,1.42-4.54l2.4-6.52h2.22l0.84,13.48h-1.7L408.67,533.1z"/>
		<path class="st8" d="M414.67,534.5c0.04,2.38,1.56,3.36,3.32,3.36c1.26,0,2.02-0.22,2.68-0.5l0.3,1.26
			c-0.62,0.28-1.68,0.6-3.22,0.6c-2.98,0-4.76-1.96-4.76-4.88s1.72-5.22,4.54-5.22c3.16,0,4,2.78,4,4.56c0,0.36-0.04,0.64-0.06,0.82
			H414.67z M419.83,533.24c0.02-1.12-0.46-2.86-2.44-2.86c-1.78,0-2.56,1.64-2.7,2.86H419.83z"/>
		<path class="st8" d="M424.93,534.5c0.04,2.38,1.56,3.36,3.32,3.36c1.26,0,2.02-0.22,2.68-0.5l0.3,1.26
			c-0.62,0.28-1.68,0.6-3.22,0.6c-2.98,0-4.76-1.96-4.76-4.88s1.72-5.22,4.54-5.22c3.16,0,4,2.78,4,4.56c0,0.36-0.04,0.64-0.06,0.82
			H424.93z M430.09,533.24c0.02-1.12-0.46-2.86-2.44-2.86c-1.78,0-2.56,1.64-2.7,2.86H430.09z"/>
		<path class="st8" d="M436.33,526.56v2.78h2.52v1.34h-2.52v5.22c0,1.2,0.34,1.88,1.32,1.88c0.46,0,0.8-0.06,1.02-0.12l0.08,1.32
			c-0.34,0.14-0.88,0.24-1.56,0.24c-0.82,0-1.48-0.26-1.9-0.74c-0.5-0.52-0.68-1.38-0.68-2.52v-5.28h-1.5v-1.34h1.5v-2.32
			L436.33,526.56z"/>
		<path class="st8" d="M446.19,529.34l2.12,5.72c0.22,0.64,0.46,1.4,0.62,1.98h0.04c0.18-0.58,0.38-1.32,0.62-2.02l1.92-5.68h1.86
			l-2.64,6.9c-1.26,3.32-2.12,5.02-3.32,6.06c-0.86,0.76-1.72,1.06-2.16,1.14l-0.44-1.48c0.44-0.14,1.02-0.42,1.54-0.86
			c0.48-0.38,1.08-1.06,1.48-1.96c0.08-0.18,0.14-0.32,0.14-0.42c0-0.1-0.04-0.24-0.12-0.46l-3.58-8.92H446.19z"/>
		<path class="st8" d="M463.77,534.1c0,3.58-2.48,5.14-4.82,5.14c-2.62,0-4.64-1.92-4.64-4.98c0-3.24,2.12-5.14,4.8-5.14
			C461.89,529.12,463.77,531.14,463.77,534.1z M456.09,534.2c0,2.12,1.22,3.72,2.94,3.72c1.68,0,2.94-1.58,2.94-3.76
			c0-1.64-0.82-3.72-2.9-3.72C456.99,530.44,456.09,532.36,456.09,534.2z"/>
		<path class="st8" d="M474.33,536.38c0,1,0.02,1.88,0.08,2.64h-1.56l-0.1-1.58h-0.04c-0.46,0.78-1.48,1.8-3.2,1.8
			c-1.52,0-3.34-0.84-3.34-4.24v-5.66h1.76v5.36c0,1.84,0.56,3.08,2.16,3.08c1.18,0,2-0.82,2.32-1.6c0.1-0.26,0.16-0.58,0.16-0.9
			v-5.94h1.76V536.38z"/>
		<path class="st8" d="M477.49,532.36c0-1.14-0.02-2.12-0.08-3.02h1.54l0.06,1.9h0.08c0.44-1.3,1.5-2.12,2.68-2.12
			c0.2,0,0.34,0.02,0.5,0.06v1.66c-0.18-0.04-0.36-0.06-0.6-0.06c-1.24,0-2.12,0.94-2.36,2.26c-0.04,0.24-0.08,0.52-0.08,0.82v5.16
			h-1.74V532.36z"/>
		<path class="st8" d="M488.75,531.96c0-1-0.02-1.82-0.08-2.62h1.56l0.1,1.6h0.04c0.48-0.92,1.6-1.82,3.2-1.82
			c1.34,0,3.42,0.8,3.42,4.12v5.78h-1.76v-5.58c0-1.56-0.58-2.86-2.24-2.86c-1.16,0-2.06,0.82-2.36,1.8
			c-0.08,0.22-0.12,0.52-0.12,0.82v5.82h-1.76V531.96z"/>
		<path class="st8" d="M501.07,534.5c0.04,2.38,1.56,3.36,3.32,3.36c1.26,0,2.02-0.22,2.68-0.5l0.3,1.26
			c-0.62,0.28-1.68,0.6-3.22,0.6c-2.98,0-4.76-1.96-4.76-4.88s1.72-5.22,4.54-5.22c3.16,0,4,2.78,4,4.56c0,0.36-0.04,0.64-0.06,0.82
			H501.07z M506.23,533.24c0.02-1.12-0.46-2.86-2.44-2.86c-1.78,0-2.56,1.64-2.7,2.86H506.23z"/>
		<path class="st8" d="M511.11,529.34l1.38,2.08c0.36,0.54,0.66,1.04,0.98,1.58h0.06c0.32-0.58,0.64-1.08,0.96-1.6l1.36-2.06h1.9
			l-3.3,4.68l3.4,5h-2l-1.42-2.18c-0.38-0.56-0.7-1.1-1.04-1.68h-0.04c-0.32,0.58-0.66,1.1-1.02,1.68l-1.4,2.18h-1.94l3.44-4.94
			l-3.28-4.74H511.11z"/>
		<path class="st8" d="M522.17,526.56v2.78h2.52v1.34h-2.52v5.22c0,1.2,0.34,1.88,1.32,1.88c0.46,0,0.8-0.06,1.02-0.12l0.08,1.32
			c-0.34,0.14-0.88,0.24-1.56,0.24c-0.82,0-1.48-0.26-1.9-0.74c-0.5-0.52-0.68-1.38-0.68-2.52v-5.28h-1.5v-1.34h1.5v-2.32
			L522.17,526.56z"/>
		<path class="st8" d="M531.57,539.02v-8.34h-1.36v-1.34h1.36v-0.46c0-1.36,0.3-2.6,1.12-3.38c0.66-0.64,1.54-0.9,2.36-0.9
			c0.62,0,1.16,0.14,1.5,0.28l-0.24,1.36c-0.26-0.12-0.62-0.22-1.12-0.22c-1.5,0-1.88,1.32-1.88,2.8v0.52h2.34v1.34h-2.34v8.34
			H531.57z"/>
		<path class="st8" d="M542.83,539.02l-0.14-1.22h-0.06c-0.54,0.76-1.58,1.44-2.96,1.44c-1.96,0-2.96-1.38-2.96-2.78
			c0-2.34,2.08-3.62,5.82-3.6v-0.2c0-0.8-0.22-2.24-2.2-2.24c-0.9,0-1.84,0.28-2.52,0.72l-0.4-1.16c0.8-0.52,1.96-0.86,3.18-0.86
			c2.96,0,3.68,2.02,3.68,3.96v3.62c0,0.84,0.04,1.66,0.16,2.32H542.83z M542.57,534.08c-1.92-0.04-4.1,0.3-4.1,2.18
			c0,1.14,0.76,1.68,1.66,1.68c1.26,0,2.06-0.8,2.34-1.62c0.06-0.18,0.1-0.38,0.1-0.56V534.08z"/>
		<path class="st8" d="M547.87,529.34l1.9,5.44c0.32,0.88,0.58,1.68,0.78,2.48h0.06c0.22-0.8,0.5-1.6,0.82-2.48l1.88-5.44h1.84
			l-3.8,9.68h-1.68l-3.68-9.68H547.87z"/>
		<path class="st8" d="M565.61,534.1c0,3.58-2.48,5.14-4.82,5.14c-2.62,0-4.64-1.92-4.64-4.98c0-3.24,2.12-5.14,4.8-5.14
			C563.73,529.12,565.61,531.14,565.61,534.1z M557.93,534.2c0,2.12,1.22,3.72,2.94,3.72c1.68,0,2.94-1.58,2.94-3.76
			c0-1.64-0.82-3.72-2.9-3.72C558.83,530.44,557.93,532.36,557.93,534.2z"/>
		<path class="st8" d="M576.17,536.38c0,1,0.02,1.88,0.08,2.64h-1.56l-0.1-1.58h-0.04c-0.46,0.78-1.48,1.8-3.2,1.8
			c-1.52,0-3.34-0.84-3.34-4.24v-5.66h1.76v5.36c0,1.84,0.56,3.08,2.16,3.08c1.18,0,2-0.82,2.32-1.6c0.1-0.26,0.16-0.58,0.16-0.9
			v-5.94h1.76V536.38z"/>
		<path class="st8" d="M579.33,532.36c0-1.14-0.02-2.12-0.08-3.02h1.54l0.06,1.9h0.08c0.44-1.3,1.5-2.12,2.68-2.12
			c0.2,0,0.34,0.02,0.5,0.06v1.66c-0.18-0.04-0.36-0.06-0.6-0.06c-1.24,0-2.12,0.94-2.36,2.26c-0.04,0.24-0.08,0.52-0.08,0.82v5.16
			h-1.74V532.36z"/>
		<path class="st8" d="M588.15,526.62c0.02,0.6-0.42,1.08-1.12,1.08c-0.62,0-1.06-0.48-1.06-1.08c0-0.62,0.46-1.1,1.1-1.1
			C587.73,525.52,588.15,526,588.15,526.62z M586.19,539.02v-9.68h1.76v9.68H586.19z"/>
		<path class="st8" d="M593.23,526.56v2.78h2.52v1.34h-2.52v5.22c0,1.2,0.34,1.88,1.32,1.88c0.46,0,0.8-0.06,1.02-0.12l0.08,1.32
			c-0.34,0.14-0.88,0.24-1.56,0.24c-0.82,0-1.48-0.26-1.9-0.74c-0.5-0.52-0.68-1.38-0.68-2.52v-5.28h-1.5v-1.34h1.5v-2.32
			L593.23,526.56z"/>
		<path class="st8" d="M598.83,534.5c0.04,2.38,1.56,3.36,3.32,3.36c1.26,0,2.02-0.22,2.68-0.5l0.3,1.26
			c-0.62,0.28-1.68,0.6-3.22,0.6c-2.98,0-4.76-1.96-4.76-4.88s1.72-5.22,4.54-5.22c3.16,0,4,2.78,4,4.56c0,0.36-0.04,0.64-0.06,0.82
			H598.83z M603.99,533.24c0.02-1.12-0.46-2.86-2.44-2.86c-1.78,0-2.56,1.64-2.7,2.86H603.99z"/>
		<path class="st8" d="M612.51,539.02c0.04-0.66,0.08-1.64,0.08-2.5v-11.7h1.74v6.08h0.04c0.62-1.08,1.74-1.78,3.3-1.78
			c2.4,0,4.1,2,4.08,4.94c0,3.46-2.18,5.18-4.34,5.18c-1.4,0-2.52-0.54-3.24-1.82h-0.06l-0.08,1.6H612.51z M614.33,535.14
			c0,0.22,0.04,0.44,0.08,0.64c0.34,1.22,1.36,2.06,2.64,2.06c1.84,0,2.94-1.5,2.94-3.72c0-1.94-1-3.6-2.88-3.6
			c-1.2,0-2.32,0.82-2.68,2.16c-0.04,0.2-0.1,0.44-0.1,0.72V535.14z"/>
		<path class="st8" d="M632.97,534.1c0,3.58-2.48,5.14-4.82,5.14c-2.62,0-4.64-1.92-4.64-4.98c0-3.24,2.12-5.14,4.8-5.14
			C631.09,529.12,632.97,531.14,632.97,534.1z M625.29,534.2c0,2.12,1.22,3.72,2.94,3.72c1.68,0,2.94-1.58,2.94-3.76
			c0-1.64-0.82-3.72-2.9-3.72C626.19,530.44,625.29,532.36,625.29,534.2z"/>
		<path class="st8" d="M644.19,534.1c0,3.58-2.48,5.14-4.82,5.14c-2.62,0-4.64-1.92-4.64-4.98c0-3.24,2.12-5.14,4.8-5.14
			C642.31,529.12,644.19,531.14,644.19,534.1z M636.51,534.2c0,2.12,1.22,3.72,2.94,3.72c1.68,0,2.94-1.58,2.94-3.76
			c0-1.64-0.82-3.72-2.9-3.72C637.41,530.44,636.51,532.36,636.51,534.2z"/>
		<path class="st8" d="M648.39,533.78h0.04c0.24-0.34,0.58-0.76,0.86-1.1l2.84-3.34h2.12l-3.74,3.98l4.26,5.7h-2.14l-3.34-4.64
			l-0.9,1v3.64h-1.74v-14.2h1.74V533.78z"/>
		<path class="st8" d="M656.13,537.98c0-0.74,0.5-1.26,1.2-1.26s1.18,0.52,1.18,1.26c0,0.72-0.46,1.26-1.2,1.26
			C656.61,539.24,656.13,538.7,656.13,537.98z"/>
	</g>
</g>
</svg>
